# xmcd
#
# Track frame offsets:
# 150
# 17470
# 34245
# 49362
# 67310
# 87157
# 103587
# 124985
# 144665
# 163992
# 183052
#
# Disc length: 2669 seconds
#
#
# Revision: 1
# Processed by: cddbd v1.5.1PL0 Copyright (c) Steve Scherf et al.
# Submitted via: FreeRIP 2.92 
#
DISCID=9c0a6b0b
DTITLE=Chitãozinho and Xororó - Chitãozinho and Xororó
DYEAR=1987
DGENRE=sertanejo
TTITLE0=Meu Disfarce
TTITLE1=Fogão de Lenha
TTITLE2=Pé na Estrada
TTITLE3=Contratempos
TTITLE4=Que Mundo É Esse
TTITLE5=Coração
TTITLE6=Falando às Paredes
TTITLE7=A Colheita
TTITLE8=A Mais Bonita das Noites
TTITLE9=Eu Te Encontrei
TTITLE10=Nossas Divergências
EXTD=
EXTT0=
EXTT1=
EXTT2=
EXTT3=
EXTT4=
EXTT5=
EXTT6=
EXTT7=
EXTT8=
EXTT9=
EXTT10=
PLAYORDER=
